<?xml version="1.0" encoding="utf-8" ?>
<svg xmlns="http://www.w3.org/2000/svg" xmlns:xlink="http://www.w3.org/1999/xlink" width="877" height="1192">
	<path d="M804.921 709.875C806.374 708.96 806.944 707.908 807.725 706.439L808.034 705.851L809.236 705.555C807.091 713.414 804.237 722.144 800.588 729.421C800.539 725.995 801.071 722.673 801.563 719.294L804.921 709.875Z"/>
	<path d="M801.563 719.294C801.071 722.673 800.539 725.995 800.588 729.421C799.076 734.742 796.448 740.037 794.162 745.068C793.458 743.422 793.324 741.971 793.179 740.197C796.417 733.449 798.744 726.233 801.563 719.294Z"/>
	<path d="M793.179 740.197C793.324 741.971 793.458 743.422 794.162 745.068Q789.476 756.476 783.637 767.339C782.83 766.125 782.664 764.834 782.392 763.433C786.444 755.903 789.318 747.82 793.179 740.197Z"/>
	<path d="M167.232 738.851C168.848 735.946 177.956 734.154 181.365 732.49C186.82 729.829 191.29 725.824 196.248 722.414C198.054 721.172 200.227 720.361 201.944 719.03C206.032 715.861 204.678 708.015 205.378 703.533L206.597 703.028C206.65 706.966 206.736 710.889 206.459 714.821C198.111 726.637 181.383 735.754 167.232 738.851Z"/>
	<path d="M782.392 763.433C782.664 764.834 782.83 766.125 783.637 767.339C775.705 783.683 758.961 812.797 747.458 825.792C750.259 814.395 763.226 797.508 769.683 786.621C774.184 779.031 778.142 771.162 782.392 763.433Z"/>
	<path d="M396.402 994.812C401.255 994.993 432.596 977.789 438.249 973.602C438.001 974.208 437.727 975.289 437.354 975.787C433.554 980.848 413.263 990.909 406.724 993.788C404.594 994.725 402.325 995.458 400.15 996.299L400.203 996.97L399.604 996.94C400.795 997.435 401.419 996.973 402.625 996.597C404.087 998.187 404.53 998.363 406.765 998.438C412.974 998.647 419.135 998.205 425.35 998.703L425.009 998.813C427.451 998.918 429.976 999.127 432.399 998.713C429.847 1000.87 420.525 1000.82 416.97 1000.52C416.204 1000.45 415.603 1000.26 414.877 1000.03C414.386 1000.41 413.998 1000.58 413.388 1000.76C409.134 1002.01 390.525 1001.57 385.822 1000.89C384.453 1000.69 383.15 1000.07 381.937 999.433C382.055 999.456 382.173 999.481 382.291 999.5C382.488 999.53 382.687 999.55 382.884 999.579C383.208 999.628 383.531 999.695 383.858 999.72C387.434 1000 393.673 997.009 396.402 994.812Z"/>
	<path d="M460.318 992.635C468.025 993.797 523.961 979.9 533.422 976.903C542.473 974.036 552.037 968.429 561.592 967.765C556.235 974.457 485.693 992.817 475.42 993.855C474.375 993.96 473.536 993.81 472.562 993.41C469.256 996.499 441.1 999.39 435.285 999.346Q434.538 999.344 433.808 999.184Q433.078 999.024 432.399 998.713C429.976 999.127 427.451 998.918 425.009 998.813L425.35 998.703C419.135 998.205 412.974 998.647 406.765 998.438C404.53 998.363 404.087 998.187 402.625 996.597C402.85 996.688 403.072 996.785 403.3 996.87C409.63 999.237 453.908 995.539 460.318 992.635Z"/>
	<path d="M178.935 670.271C181.865 664.686 185.609 659.582 188.372 653.849C198.768 632.283 203.047 607.673 205.003 584.007C206.347 585.931 206.518 630.154 206.438 635.97Q205.915 648.114 205.685 660.268C205.785 659.297 205.751 659.424 205.475 658.525C204.745 656.143 205.426 648.266 205.429 645.399C203.112 649.131 199.877 650.54 195.768 651.515Q192.994 652.177 190.189 652.694C188.464 656.289 182.592 669.004 179.406 670.479L178.935 670.271Z"/>
	<path d="M226.498 582.562C229.873 607.292 233.775 631.396 245.131 653.917C248.512 660.621 252.62 666.832 256.383 673.311L255.723 673.64C252.105 671.441 243.307 652.346 240.887 647.731C239.671 649.189 238.225 651.294 236.379 651.896C233.257 652.916 230.439 653.632 227.139 653.767L226.311 653.796C224.624 655.574 226.009 663.584 225.736 666.662L225.682 666.626C224.308 660.767 225.263 653.297 225.034 647.184L226.498 582.562Z"/>
	<path d="M321.264 766.063L321.403 765.334C324.045 762.684 340.473 756.462 344.948 755.899C345.634 755.813 345.685 755.614 346.188 755.161C345.132 755.265 344.071 755.34 343.034 755.57C342.483 755.693 341.923 755.844 341.355 755.856C339.628 755.891 337.554 755.171 336.376 753.87C333.841 751.069 332.086 740.434 332.582 736.723C332.785 735.205 333.425 735.062 334.561 734.222L334.492 733.688C325.717 731.01 315.439 726.314 307.808 721.199L307.964 720.275C323.319 728.659 339.05 735.108 356.043 739.369C365.27 741.682 374.759 743.252 383.915 745.778C361.626 751.934 342.823 757.166 321.264 766.063Z"/>
	<path d="M197.57 851.729C199.591 852.661 200.213 855.621 200.986 857.683C201.97 860.303 202.441 863.336 204.204 865.541C206.699 866.035 208.765 865.321 211.234 865.321C215.303 865.32 222.198 867.554 224.331 871.167C225.36 872.909 224.973 876.221 224.965 878.219C225.872 876.105 226.105 873.741 226.892 871.549C227.223 870.627 227.406 869.806 227.817 868.893C229.423 865.319 230.147 861.437 231.805 857.814L232.973 857.378C227.645 872.04 223.402 886.811 220.662 902.191C219.078 911.076 218.624 920.743 216.114 929.376C213.418 913.708 211.339 897.747 207.499 882.313C204.912 871.912 201.281 861.774 197.57 851.729Z"/>
	<path d="M46.3135 747.48C81.0729 740.145 98.932 733.847 130.181 716.665C127.841 721.941 110.207 727.29 104.808 731.246C105.046 731.232 105.283 731.207 105.521 731.204C106.442 731.193 106.856 731.35 107.662 731.734C110.051 736.375 107.457 746.007 105.968 750.704C105.208 753.102 104.348 755.881 102.15 757.306C99.7226 757.667 97.336 757.573 94.8915 757.51C105.694 760.538 116.105 765.676 126.207 770.515C126.021 771.386 126.221 771.091 125.828 771.514C119.651 769.357 113.779 765.486 107.612 763.057Q100.244 760.122 92.7004 757.673Q85.157 755.224 77.4703 753.271Q69.7836 751.317 61.9861 749.868Q54.1887 748.419 46.3135 747.48Z"/>
	<path d="M205.429 645.399C205.426 648.266 204.745 656.143 205.475 658.525C205.751 659.424 205.785 659.297 205.685 660.268Q205.915 648.114 206.438 635.97L206.644 681.511C206.673 688.494 207.263 696.101 206.597 703.028L205.378 703.533C204.678 708.015 206.032 715.861 201.944 719.03C200.227 720.361 198.054 721.172 196.248 722.414C191.29 725.824 186.82 729.829 181.365 732.49C177.956 734.154 168.848 735.946 167.232 738.851C162.188 741.508 155.606 742.787 150.086 744.208C155.628 744.801 163.419 745.89 168.284 748.806C184.62 753.976 200.48 762.203 208.682 777.961C212.567 785.425 214.348 793.75 216.305 801.873L217.265 795.747C218.374 788.971 219.999 782.461 223.221 776.352C231.53 760.595 248.611 752.611 264.89 747.53C269.726 745.254 275.3 744.192 280.479 742.973C275.542 741.766 269.844 740.744 265.356 738.387C258.607 736.46 251.844 733.858 245.519 730.81C237.324 726.861 228.264 722.084 225.077 713.018C223.598 705.412 224.542 696.081 224.575 688.316C224.632 674.63 224.386 660.856 225.034 647.184C225.263 653.297 224.308 660.767 225.682 666.626L225.736 666.662C226.009 663.584 224.624 655.574 226.311 653.796L227.139 653.767C230.439 653.632 233.257 652.916 236.379 651.896C238.225 651.294 239.671 649.189 240.887 647.731C243.307 652.346 252.105 671.441 255.723 673.64L256.383 673.311C261.265 679.175 265.741 685.349 270.885 690.997C281.86 703.048 294.633 711.204 307.964 720.275L307.808 721.199C315.439 726.314 325.717 731.01 334.492 733.688L334.561 734.222C333.425 735.062 332.785 735.205 332.582 736.723C332.086 740.434 333.841 751.069 336.376 753.87C337.554 755.171 339.628 755.891 341.355 755.856C341.923 755.844 342.483 755.693 343.034 755.57C344.071 755.34 345.132 755.265 346.188 755.161C345.685 755.614 345.634 755.813 344.948 755.899C340.473 756.462 324.045 762.684 321.403 765.334L321.264 766.063C288.429 781.892 262.173 803.275 243.799 835.2C239.66 842.392 236.862 850.149 232.973 857.378L231.805 857.814C230.147 861.437 229.423 865.319 227.817 868.893C227.406 869.806 227.223 870.627 226.892 871.549C226.105 873.741 225.872 876.105 224.965 878.219C224.973 876.221 225.36 872.909 224.331 871.167C222.198 867.554 215.303 865.32 211.234 865.321C208.765 865.321 206.699 866.035 204.204 865.541C202.441 863.336 201.97 860.303 200.986 857.683C200.213 855.621 199.591 852.661 197.57 851.729C194.171 847.06 189.662 835.731 186.022 829.674C170.244 803.422 151.726 787.344 125.828 771.514C126.221 771.091 126.021 771.386 126.207 770.515C116.105 765.676 105.694 760.538 94.8915 757.51C97.336 757.573 99.7226 757.667 102.15 757.306C104.348 755.881 105.208 753.102 105.968 750.704C107.457 746.007 110.051 736.375 107.662 731.734C106.856 731.35 106.442 731.193 105.521 731.204C105.283 731.207 105.046 731.232 104.808 731.246C110.207 727.29 127.841 721.941 130.181 716.665C131.847 714.783 135.84 712.767 138 711.227C143.582 707.248 149.108 703.185 154.28 698.677C163.818 690.364 170.455 679.948 178.694 670.542L178.935 670.271L179.406 670.479C182.592 669.004 188.464 656.289 190.189 652.694Q192.994 652.177 195.768 651.515C199.877 650.54 203.112 649.131 205.429 645.399Z"/>
	<path d="M225.077 713.018C225.13 711.825 225.004 706.283 225.532 705.643C226.118 710.678 226.202 715.566 230.427 718.96C241.679 727.999 252.086 732.656 265.488 737.401L265.356 738.387C258.607 736.46 251.844 733.858 245.519 730.81C237.324 726.861 228.264 722.084 225.077 713.018Z"/>
	<path d="M168.284 748.806C184.62 753.976 200.48 762.203 208.682 777.961C212.567 785.425 214.348 793.75 216.305 801.873L217.265 795.747L217.918 796.521C217.782 798.531 217.975 800.49 216.614 802.031L215.256 801.833C213.452 798.205 213.528 793.874 212.401 790.019C210.858 784.74 203.673 782.567 199.313 780.183C189.466 774.8 184.482 766.034 181.419 755.569C177.287 752.94 172.399 752.278 168.287 749.772L168.284 748.806Z"/>
	<path d="M264.89 747.53L265.447 748.277C262.195 750.197 256.619 750.396 253.996 752.888C251.415 755.34 250.095 759.584 248.584 762.761C243.434 773.584 232.629 780.766 221.229 783.559C220.047 787.793 219.34 792.419 217.918 796.521L217.265 795.747C218.374 788.971 219.999 782.461 223.221 776.352C231.53 760.595 248.611 752.611 264.89 747.53Z"/>
	<path d="M382.073 152.47C387.809 152.34 393.566 152.472 399.304 152.51C424.516 153.634 449.9 155.896 474.649 160.927C480.231 162.062 486.241 163.056 491.637 164.901C506.207 167.721 525.297 172.332 538.905 178.287C553.968 183.155 580.662 192.923 593.2 201.098C597.112 202.813 601.192 204.957 604.785 207.272C608.397 209.162 613.17 211.176 616.241 213.769C626.983 219.647 637.911 226.239 647.662 233.682C686.23 259.71 720.94 294.295 748.978 331.34C751.894 335.298 755.753 339.612 757.893 344.031C790.928 390.722 814.676 448.305 824.005 504.776C827.844 529.783 830.957 556.183 829.346 581.524C830.718 603.034 825.224 654.175 818.153 673.632C816.175 684.301 812.995 695.383 809.236 705.555L808.034 705.851L807.725 706.439C806.944 707.908 806.374 708.96 804.921 709.875L801.563 719.294C798.744 726.233 796.417 733.449 793.179 740.197C789.318 747.82 786.444 755.903 782.392 763.433C778.142 771.162 774.184 779.031 769.683 786.621C763.226 797.508 750.259 814.395 747.458 825.792C707.959 880.2 649.392 928.009 588.662 956.596C582.261 959.609 569.498 966.764 563.301 967.867C562.68 967.977 562.196 967.91 561.592 967.765C552.037 968.429 542.473 974.036 533.422 976.903C523.961 979.9 468.025 993.797 460.318 992.635C453.908 995.539 409.63 999.237 403.3 996.87C403.072 996.785 402.85 996.688 402.625 996.597C401.419 996.973 400.795 997.435 399.604 996.94L400.203 996.97L400.15 996.299C402.325 995.458 404.594 994.725 406.724 993.788C413.263 990.909 433.554 980.848 437.354 975.787C437.727 975.289 438.001 974.208 438.249 973.602C438.365 973.593 438.483 973.595 438.598 973.575C442.533 972.879 448.548 968.301 451.958 966.062C476.469 949.975 499.241 931.323 518.127 908.798C555.212 864.568 573.192 809.792 568.074 752.207C563.82 704.347 543.904 660.279 512.302 624.351C452.364 556.207 373.696 529.838 288.511 509.292C238.707 497.28 185.833 485.279 145.628 451.409C123.854 433.066 105.641 408.77 103.32 379.523C101.339 354.558 110.477 331.117 126.684 312.38C155.015 279.628 197.212 264.742 239.404 261.643C252.107 260.699 265.188 260.909 277.802 262.761C311.264 267.838 340.4 277.971 368.594 296.908C405.783 321.886 429.798 359.78 438.322 403.457C440.622 382.349 448.612 363.931 464.599 349.541Q465.904 348.363 467.265 347.252Q468.627 346.14 470.042 345.098Q471.457 344.055 472.922 343.084Q474.387 342.113 475.898 341.216Q477.409 340.319 478.963 339.498Q480.517 338.677 482.11 337.934Q483.703 337.191 485.331 336.528Q486.958 335.865 488.617 335.284Q490.275 334.702 491.961 334.204Q493.646 333.706 495.354 333.292Q497.062 332.878 498.789 332.549Q500.515 332.22 502.256 331.977Q503.996 331.734 505.747 331.578Q507.498 331.422 509.254 331.353Q511.01 331.284 512.767 331.302Q514.525 331.321 516.279 331.426C534.275 332.434 549.263 339.97 561.182 353.333C560.061 336.014 555.076 318.012 548.481 302.015C524.562 243.992 473.956 198.8 419.439 169.669C407.425 163.249 394.649 157.702 382.073 152.47Z"/>
	<path d="M748.978 331.34C751.894 335.298 755.753 339.612 757.893 344.031C758.164 345.313 758.359 346.51 758.427 347.819L757.785 348.565C755.438 345.97 753.249 342.688 751.34 339.748C749.268 336.558 748.148 335.167 748.978 331.34Z"/>
	<path d="M239.404 261.643C252.107 260.699 265.188 260.909 277.802 262.761C277.2 263.123 276.576 263.488 275.909 263.719C273.362 264.601 243.856 263.866 241.955 262.721C241.124 262.221 240.321 261.956 239.404 261.643Z"/>
	<path d="M616.241 213.769C626.983 219.647 637.911 226.239 647.662 233.682C644.239 233.602 640.21 230.28 637.341 228.493L637.825 227.284L636.623 228.059L636.102 227.724C636.781 229.182 641.121 231.397 642.582 232.316L642.132 232.7C642.02 232.653 641.907 232.607 641.796 232.558C636.253 230.115 622.389 221.345 618.24 217.163C617.282 216.198 616.744 215.013 616.241 213.769Z"/>
	<path d="M817.096 666.885Q817.566 670.268 818.153 673.632C816.175 684.301 812.995 695.383 809.236 705.555L808.034 705.851L807.725 706.439C806.944 707.908 806.374 708.96 804.921 709.875C809.27 695.517 813.547 681.491 817.096 666.885Z"/>
	<path d="M538.905 178.287C553.968 183.155 580.662 192.923 593.2 201.098C590.888 201.293 588.302 200.554 585.879 200.565C579.566 198.686 573.141 194.827 567.016 192.204C558.758 188.668 548.749 185.973 541.164 181.262C539.577 180.277 539.349 180.144 538.905 178.287Z"/>
	<path d="M820.988 503.294C822.038 503.715 823.111 504.066 824.005 504.776C827.844 529.783 830.957 556.183 829.346 581.524C829.298 581.354 829.249 581.186 829.203 581.016C827.681 575.309 829.883 568.762 828.524 563.684C828.272 570.566 828.884 582.53 827.001 588.681C826.622 581.086 827.331 573.296 827.064 565.631Q826.561 549.964 825.041 534.364Q823.52 518.763 820.988 503.294Z"/>
	<path d="M827.001 588.681C828.884 582.53 828.272 570.566 828.524 563.684C829.883 568.762 827.681 575.309 829.203 581.016C829.249 581.186 829.298 581.354 829.346 581.524C830.718 603.034 825.224 654.175 818.153 673.632Q817.566 670.268 817.096 666.885C818.354 657.268 820.827 647.699 822.295 638.08C824.794 621.704 826.001 605.204 827.001 588.681Z"/>
	<path d="M399.304 152.51C424.516 153.634 449.9 155.896 474.649 160.927C480.231 162.062 486.241 163.056 491.637 164.901C491.223 165.193 490.809 165.468 490.348 165.685C486.671 167.41 473.52 164.027 468.955 163.146C458.593 161.148 448.285 159.287 437.778 158.232C429.123 157.362 408.967 158.402 402.121 155.752C400.313 155.052 400.087 154.132 399.304 152.51Z"/>
	<path d="M757.893 344.031C790.928 390.722 814.676 448.305 824.005 504.776C823.111 504.066 822.038 503.715 820.988 503.294C811.985 459.12 798.089 418.771 776.285 379.239C770.521 368.791 763.862 358.838 757.785 348.565L758.427 347.819C758.359 346.51 758.164 345.313 757.893 344.031Z"/>
</svg>
